<?xml version="1.0" encoding="UTF-8"?>
<svg version="1.1" xmlns="http://www.w3.org/2000/svg" width="226" height="70">
<path d="M0 0 C2.77147717 1.15651469 4.40378288 2.96453502 6.48266602 5.11376953 C7.24708008 5.89365234 8.01149414 6.67353516 8.79907227 7.47705078 C10.65428788 9.50992977 12.31912951 11.56595659 13.92016602 13.80126953 C16.48506728 12.70202613 18.04859793 11.67283761 20.04516602 9.67626953 C20.66391602 9.05751953 21.28266602 8.43876953 21.92016602 7.80126953 C22.58016602 7.80126953 23.24016602 7.80126953 23.92016602 7.80126953 C25.08381455 9.20449276 26.24313314 10.61151786 27.38110352 12.03564453 C29.60881408 14.59129219 32.16703462 16.68549196 34.74438477 18.87939453 C37.89004387 21.65796595 40.79168192 24.66078918 43.73266602 27.65283203 C45.7438573 29.62810919 47.81112032 31.44374184 49.98266602 33.23876953 C50.95204102 34.08439453 51.92141602 34.93001953 52.92016602 35.80126953 C52.92016602 36.46126953 52.92016602 37.12126953 52.92016602 37.80126953 C50.04757645 36.49139057 47.91670362 35.07034151 45.63500977 32.89501953 C45.02665283 32.32025879 44.4182959 31.74549805 43.79150391 31.15332031 C43.1533374 30.54214355 42.5151709 29.9309668 41.85766602 29.30126953 C40.52228939 28.03765571 39.18634679 26.77463975 37.84985352 25.51220703 C36.85937012 24.57393066 36.85937012 24.57393066 35.84887695 23.61669922 C33.09008614 21.01994372 30.29215503 18.46794162 27.48266602 15.92626953 C26.59708008 15.12447266 25.71149414 14.32267578 24.79907227 13.49658203 C23.86901367 12.65740234 23.86901367 12.65740234 22.92016602 11.80126953 C16.92515605 16.76321808 11.45589564 22.14893193 5.98266602 27.67626953 C5.10803711 28.55541016 4.2334082 29.43455078 3.33227539 30.34033203 C1.19259553 32.49170413 -0.94469996 34.64538745 -3.07983398 36.80126953 C-4.06983398 36.47126953 -5.05983398 36.14126953 -6.07983398 35.80126953 C-0.13983398 29.86126953 5.80016602 23.92126953 11.92016602 17.80126953 C9.89003191 13.74100132 7.49621048 11.14669577 4.29516602 8.05126953 C3.77954102 7.54466797 3.26391602 7.03806641 2.73266602 6.51611328 C1.46633263 5.27323051 0.19385162 4.03661677 -1.07983398 2.80126953 C-1.99764648 3.73068359 -2.91545898 4.66009766 -3.86108398 5.61767578 C-15.20017088 17.05578049 -15.20017088 17.05578049 -20.93920898 21.87158203 C-22.8156068 23.56307934 -24.57968729 25.30110185 -26.34545898 27.10595703 C-26.92932373 27.70206787 -27.51318848 28.29817871 -28.11474609 28.91235352 C-29.28385795 30.11357942 -30.44635806 31.3212822 -31.6015625 32.53588867 C-33.03923538 34.01335872 -34.55491261 35.41402916 -36.07983398 36.80126953 C-37.06983398 36.80126953 -38.05983398 36.80126953 -39.07983398 36.80126953 C-39.07983398 36.14126953 -39.07983398 35.48126953 -39.07983398 34.80126953 C-37.61108398 33.35595703 -37.61108398 33.35595703 -35.57983398 31.67626953 C-31.17459387 27.93968193 -27.11384163 23.93183587 -23.07983398 19.80126953 C-23.73983398 18.48126953 -24.39983398 17.16126953 -25.07983398 15.80126953 C-25.75973389 16.44358521 -25.75973389 16.44358521 -26.45336914 17.09887695 C-28.53549863 19.06397622 -30.62014435 21.02638656 -32.70483398 22.98876953 C-33.41768555 23.66230469 -34.13053711 24.33583984 -34.86499023 25.02978516 C-38.02338431 27.99983463 -41.17718692 30.92724033 -44.54077148 33.66455078 C-47.1176332 35.54653823 -47.1176332 35.54653823 -48.07983398 37.80126953 C-48.73983398 37.80126953 -49.39983398 37.80126953 -50.07983398 37.80126953 C-48.46291228 33.72000331 -45.53710572 30.99520496 -42.45483398 27.98876953 C-41.65057983 27.19418335 -41.65057983 27.19418335 -40.83007812 26.38354492 C-37.2333944 22.85585199 -33.54978094 19.45651502 -29.70092773 16.20361328 C-28.0332305 14.80851573 -28.0332305 14.80851573 -26.48999023 13.11767578 C-25.07983398 11.80126953 -25.07983398 11.80126953 -23.07983398 11.80126953 C-22.41983398 13.12126953 -21.75983398 14.44126953 -21.07983398 15.80126953 C-18.01698039 14.43416433 -15.91409127 12.87544532 -13.54858398 10.50830078 C-12.90276367 9.87859375 -12.25694336 9.24888672 -11.59155273 8.60009766 C-10.24453493 7.27008105 -8.90341449 5.93406645 -7.56811523 4.59228516 C-6.92229492 3.96644531 -6.27647461 3.34060547 -5.61108398 2.69580078 C-5.02907227 2.11677002 -4.44706055 1.53773926 -3.84741211 0.94116211 C-2.07983398 -0.19873047 -2.07983398 -0.19873047 0 0 Z " fill="#F09D1C" transform="translate(53.079833984375,0.19873046875)"/>
<path d="M0 0 C1.60379341 -0.05416188 3.20811406 -0.09286638 4.8125 -0.125 C5.70582031 -0.14820313 6.59914063 -0.17140625 7.51953125 -0.1953125 C10 0 10 0 13 2 C13.8125 3.8125 13.8125 3.8125 14 6 C13.62875 6.825 13.2575 7.65 12.875 8.5 C12.441875 9.7375 12.441875 9.7375 12 11 C13.00966359 13.34626504 13.00966359 13.34626504 15 15 C16.32 15.33 17.64 15.66 19 16 C19 11.38 19 6.76 19 2 C18.34 2 17.68 2 17 2 C17 1.34 17 0.68 17 0 C21.29 0 25.58 0 30 0 C30.33 1.65 30.66 3.3 31 5 C30.01 5 29.02 5 28 5 C27.67 4.34 27.34 3.68 27 3 C24.47266765 2.34444881 24.47266765 2.34444881 22 2 C22 3.98 22 5.96 22 8 C23.32 8 24.64 8 26 8 C26 7.34 26 6.68 26 6 C26.66 6 27.32 6 28 6 C28 7.98 28 9.96 28 12 C27.34 12 26.68 12 26 12 C26 11.34 26 10.68 26 10 C24.68 10 23.36 10 22 10 C22.33 11.65 22.66 13.3 23 15 C24.98 15 26.96 15 29 15 C29 14.34 29 13.68 29 13 C29.66 13 30.32 13 31 13 C30.67 14.65 30.34 16.3 30 18 C27.10109685 18.18964787 24.21461131 18.32785971 21.3125 18.4375 C20.49587891 18.49615234 19.67925781 18.55480469 18.83789062 18.61523438 C12.83880509 18.78524894 12.83880509 18.78524894 10.30224609 16.41064453 C8.91796875 14.47265625 8.91796875 14.47265625 7 11 C6.67 12.65 6.34 14.3 6 16 C6.66 16 7.32 16 8 16 C8 16.66 8 17.32 8 18 C5.36 18 2.72 18 0 18 C0 17.34 0 16.68 0 16 C0.66 16 1.32 16 2 16 C2 11.38 2 6.76 2 2 C1.34 2 0.68 2 0 2 C0 1.34 0 0.68 0 0 Z M6 2 C6 3.98 6 5.96 6 8 C7.32 7.67 8.64 7.34 10 7 C9.73323796 5.01508358 9.73323796 5.01508358 9 3 C8.01 2.67 7.02 2.34 6 2 Z " fill="#0549C5" transform="translate(99,39)"/>
<path d="M0 0 C1.60332791 -0.08121924 3.20784026 -0.13929134 4.8125 -0.1875 C6.15248047 -0.23970703 6.15248047 -0.23970703 7.51953125 -0.29296875 C10 0 10 0 11.8046875 1.3515625 C13.47948435 3.66124965 13.35691675 5.21604938 13 8 C12.34 8.66 11.68 9.32 11 10 C11.495 10.61875 11.99 11.2375 12.5 11.875 C14 14 14 14 14 16 C15.32 15.67 16.64 15.34 18 15 C18.05406122 13.06280622 18.09282025 11.12518079 18.125 9.1875 C18.14820312 8.10855469 18.17140625 7.02960937 18.1953125 5.91796875 C18.23023717 2.80597132 18.23023717 2.80597132 16 0 C20.29 0 24.58 0 29 0 C29.33 1.65 29.66 3.3 30 5 C29.34 5 28.68 5 28 5 C27.67 4.34 27.34 3.68 27 3 C24.47266765 2.34444881 24.47266765 2.34444881 22 2 C22 3.98 22 5.96 22 8 C23.32 8 24.64 8 26 8 C26 7.34 26 6.68 26 6 C26.66 6 27.32 6 28 6 C28 7.98 28 9.96 28 12 C27.34 12 26.68 12 26 12 C26 11.34 26 10.68 26 10 C24.68 10 23.36 10 22 10 C22 11.98 22 13.96 22 16 C25.40312738 14.94124926 28.01353231 13.99097846 31 12 C30.67 13.98 30.34 15.96 30 18 C27.10190611 18.16250994 24.21295149 18.28107636 21.3125 18.375 C20.08756836 18.45041016 20.08756836 18.45041016 18.83789062 18.52734375 C12.88304228 18.67199594 12.88304228 18.67199594 10.30224609 16.70800781 C7 12.8757716 7 12.8757716 7 10 C6.34 10 5.68 10 5 10 C5.34444881 12.47266765 5.34444881 12.47266765 6 15 C6.66 15.33 7.32 15.66 8 16 C8 16.66 8 17.32 8 18 C5.36 18 2.72 18 0 18 C0 17.34 0 16.68 0 16 C0.66 16 1.32 16 2 16 C2 11.38 2 6.76 2 2 C1.34 2 0.68 2 0 2 C0 1.34 0 0.68 0 0 Z M5 2 C5 3.98 5 5.96 5 8 C6.32 8 7.64 8 9 8 C9 6.35 9 4.7 9 3 C7.68 2.67 6.36 2.34 5 2 Z " fill="#064AC4" transform="translate(17,39)"/>
<path d="M0 0 C2 2 2 2 2.23046875 3.875 C2.20919922 4.926875 2.20919922 4.926875 2.1875 6 C2.17783203 7.051875 2.17783203 7.051875 2.16796875 8.125 C2 10 2 10 1 12 C1.99 12.33 2.98 12.66 4 13 C4 14.65 4 16.3 4 18 C2.02 17.67 0.04 17.34 -2 17 C-1.835 17.804375 -1.67 18.60875 -1.5 19.4375 C-0.90752652 23.65887352 -0.91493291 27.74664545 -1 32 C-2.98 32 -4.96 32 -7 32 C-6.67 27.05 -6.34 22.1 -6 17 C-7.98 17.33 -9.96 17.66 -12 18 C-12 16.35 -12 14.7 -12 13 C-10.68 12.67 -9.36 12.34 -8 12 C-8.350625 11.46375 -8.70125 10.9275 -9.0625 10.375 C-10.33302894 7.15632669 -9.98013473 5.29045231 -9 2 C-6.06138223 -1.25346967 -4.07402725 -1.39374616 0 0 Z M-6 4 C-6.86358623 5.78141747 -6.86358623 5.78141747 -7 8 C-5.14567913 10.27144074 -5.14567913 10.27144074 -3 12 C-0.66608797 9.21885944 -0.66608797 9.21885944 -1.375 6.3125 C-1.58125 5.549375 -1.7875 4.78625 -2 4 C-3.32 4 -4.64 4 -6 4 Z " fill="#F1AD36" transform="translate(143,25)"/>
<path d="M0 0 C1.60379341 -0.05416188 3.20811406 -0.09286638 4.8125 -0.125 C5.70582031 -0.14820313 6.59914062 -0.17140625 7.51953125 -0.1953125 C10 0 10 0 13 2 C13.33 1.34 13.66 0.68 14 0 C19.28 0 24.56 0 30 0 C30 1.65 30 3.3 30 5 C29.34 5 28.68 5 28 5 C27.67 4.34 27.34 3.68 27 3 C24.97536745 2.34786708 24.97536745 2.34786708 23 2 C23.11344376 4.1464753 23.24106345 6.29220592 23.375 8.4375 C23.44460937 9.63246094 23.51421875 10.82742187 23.5859375 12.05859375 C23.72257812 13.02925781 23.85921875 13.99992187 24 15 C24.66 15.33 25.32 15.66 26 16 C26 16.66 26 17.32 26 18 C23.03 18 20.06 18 17 18 C17 17.34 17 16.68 17 16 C17.99 16 18.98 16 20 16 C20 11.38 20 6.76 20 2 C18.68 2.33 17.36 2.66 16 3 C15.67 3.66 15.34 4.32 15 5 C14.34 5 13.68 5 13 5 C12.8453125 5.928125 12.8453125 5.928125 12.6875 6.875 C12 9 12 9 9 11 C7.68 11 6.36 11 5 11 C5 12.65 5 14.3 5 16 C5.99 16 6.98 16 8 16 C8 16.66 8 17.32 8 18 C5.36 18 2.72 18 0 18 C0 17.34 0 16.68 0 16 C0.66 16 1.32 16 2 16 C2 11.38 2 6.76 2 2 C1.34 2 0.68 2 0 2 C0 1.34 0 0.68 0 0 Z M5 2 C5 3.98 5 5.96 5 8 C6.32 8 7.64 8 9 8 C9 6.35 9 4.7 9 3 C7.68 2.67 6.36 2.34 5 2 Z " fill="#064AC5" transform="translate(196,39)"/>
<path d="M0 0 C4.29 0 8.58 0 13 0 C12.67 0.66 12.34 1.32 12 2 C11.76970044 4.37123246 11.58880058 6.74741943 11.4375 9.125 C11.35371094 10.40632813 11.26992187 11.68765625 11.18359375 13.0078125 C11.12300781 13.99523438 11.06242188 14.98265625 11 16 C11.66 16 12.32 16 13 16 C13 16.66 13 17.32 13 18 C8.38 18 3.76 18 -1 18 C-1.33 16.02 -1.66 14.04 -2 12 C-1.34 12 -0.68 12 0 12 C0.33 12.66 0.66 13.32 1 14 C4.02934491 14.65772428 4.02934491 14.65772428 7 15 C7 13.35 7 11.7 7 10 C5.68 10 4.36 10 3 10 C3 10.66 3 11.32 3 12 C2.34 12 1.68 12 1 12 C1 9.69 1 7.38 1 5 C0.34 5 -0.32 5 -1 5 C-0.67 3.35 -0.34 1.7 0 0 Z M2 2 C1.67 2.99 1.34 3.98 1 5 C1.66 5 2.32 5 3 5 C3 5.66 3 6.32 3 7 C4.32 7 5.64 7 7 7 C7 5.35 7 3.7 7 2 C5.35 2 3.7 2 2 2 Z " fill="#0549C5" transform="translate(150,39)"/>
<path d="M0 0 C1.21236328 0.02707031 1.21236328 0.02707031 2.44921875 0.0546875 C3.37154297 0.08949219 3.37154297 0.08949219 4.3125 0.125 C4.9725 2.105 5.6325 4.085 6.3125 6.125 C5.3225 5.795 4.3325 5.465 3.3125 5.125 C2.9825 4.465 2.6525 3.805 2.3125 3.125 C-0.60384129 2.8747843 -0.60384129 2.8747843 -3.6875 3.125 C-5.92301759 6.47827639 -5.86033528 7.03243657 -5.3125 10.8125 C-5.20164063 11.62074219 -5.09078125 12.42898437 -4.9765625 13.26171875 C-4.88117188 13.87660156 -4.78578125 14.49148437 -4.6875 15.125 C-1.7175 15.62 -1.7175 15.62 1.3125 16.125 C0.73665568 13.73935923 0.09022405 11.45817216 -0.6875 9.125 C1.9525 9.125 4.5925 9.125 7.3125 9.125 C6.6525 12.095 5.9925 15.065 5.3125 18.125 C-3.48249966 18.73979609 -3.48249966 18.73979609 -7.75 16.5625 C-10.314735 13.3358979 -10.6875 11.22736878 -10.6875 7.125 C-8.37230436 1.91580981 -5.70109344 -0.16524909 0 0 Z " fill="#064AC5" transform="translate(173.6875,38.875)"/>
<path d="M0 0 C13.86 0 27.72 0 42 0 C42 0.99 42 1.98 42 3 C28.14 3 14.28 3 0 3 C0 2.01 0 1.02 0 0 Z " fill="#F7A72F" transform="translate(157,64)"/>
<path d="M0 0 C13.86 0 27.72 0 42 0 C42 0.99 42 1.98 42 3 C28.14 3 14.28 3 0 3 C0 2.01 0 1.02 0 0 Z " fill="#FBB23B" transform="translate(26,64)"/>
<path d="M0 0 C1.134375 0.144375 2.26875 0.28875 3.4375 0.4375 C5.4375 3.4375 5.4375 3.4375 5.4375 6.4375 C4.4475 6.1075 3.4575 5.7775 2.4375 5.4375 C2.1075 4.7775 1.7775 4.1175 1.4375 3.4375 C-0.58713255 2.78536708 -0.58713255 2.78536708 -2.5625 2.4375 C-2.5625 3.7575 -2.5625 5.0775 -2.5625 6.4375 C-1.139375 6.870625 -1.139375 6.870625 0.3125 7.3125 C3.4375 8.4375 3.4375 8.4375 5.4375 10.4375 C5.75 13.4375 5.75 13.4375 5.4375 16.4375 C1.76403229 18.88647847 -0.22606399 18.75287716 -4.5625 18.4375 C-6.5625 16.4375 -6.5625 16.4375 -6.6875 13.8125 C-6.64625 13.02875 -6.605 12.245 -6.5625 11.4375 C-5.985 12.0975 -5.4075 12.7575 -4.8125 13.4375 C-2.56596023 15.88040923 -2.56596023 15.88040923 1.4375 15.4375 C1.4375 14.4475 1.4375 13.4575 1.4375 12.4375 C0.014375 11.8496875 0.014375 11.8496875 -1.4375 11.25 C-4.5625 9.4375 -4.5625 9.4375 -6.125 7 C-6.5625 4.4375 -6.5625 4.4375 -5.625 2.125 C-3.5625 0.4375 -3.5625 0.4375 0 0 Z " fill="#064AC5" transform="translate(72.5625,38.5625)"/>
<path d="M0 0 C2.31 0 4.62 0 7 0 C7 0.66 7 1.32 7 2 C6.34 2 5.68 2 5 2 C5.33 6.29 5.66 10.58 6 15 C9.465 14.505 9.465 14.505 13 14 C13.33 10.04 13.66 6.08 14 2 C13.34 2 12.68 2 12 2 C12 1.34 12 0.68 12 0 C13.98 0 15.96 0 18 0 C18 0.66 18 1.32 18 2 C17.34 2 16.68 2 16 2 C16.05220703 3.35544922 16.05220703 3.35544922 16.10546875 4.73828125 C16.13253906 5.91777344 16.15960938 7.09726562 16.1875 8.3125 C16.22230469 9.48425781 16.25710937 10.65601563 16.29296875 11.86328125 C16 15 16 15 14.73828125 16.89453125 C12.66232112 18.21474859 11.4484873 18.40282372 9 18.375 C8.319375 18.38273437 7.63875 18.39046875 6.9375 18.3984375 C4.31106228 17.85832329 3.49179666 17.24000427 2 15 C1.70703125 11.86328125 1.70703125 11.86328125 1.8125 8.3125 C1.83957031 7.13300781 1.86664063 5.95351563 1.89453125 4.73828125 C1.92933594 3.83464844 1.96414062 2.93101563 2 2 C1.34 2 0.68 2 0 2 C0 1.34 0 0.68 0 0 Z " fill="#064AC5" transform="translate(80,39)"/>
<path d="M0 0 C0.66 0 1.32 0 2 0 C3.0044134 2.2898234 4.00367612 4.5816599 5 6.875 C5.28617188 7.52597656 5.57234375 8.17695312 5.8671875 8.84765625 C8 13.7734375 8 13.7734375 8 16 C8.66 16 9.32 16 10 16 C10 16.66 10 17.32 10 18 C7.69 18 5.38 18 3 18 C3 16.35 3 14.7 3 13 C1.35 13 -0.3 13 -2 13 C-2 13.99 -2 14.98 -2 16 C-2 16.66 -2 17.32 -2 18 C-3.98 18 -5.96 18 -8 18 C-8 17.34 -8 16.68 -8 16 C-7.34 16 -6.68 16 -6 16 C-5.81824219 15.43152344 -5.63648438 14.86304688 -5.44921875 14.27734375 C-3.85915366 9.39298997 -2.09540222 4.68970973 0 0 Z M0 5 C-0.33 6.65 -0.66 8.3 -1 10 C-0.01 10 0.98 10 2 10 C1.67 8.35 1.34 6.7 1 5 C0.67 5 0.34 5 0 5 Z " fill="#064AC5" transform="translate(56,39)"/>
<path d="M0 0 C5.28 0 10.56 0 16 0 C16.33 1.65 16.66 3.3 17 5 C16.401875 4.690625 15.80375 4.38125 15.1875 4.0625 C12.91043228 2.89790296 12.91043228 2.89790296 10 2 C10 6.62 10 11.24 10 16 C10.66 16 11.32 16 12 16 C12 16.66 12 17.32 12 18 C9.36 18 6.72 18 4 18 C4 17.34 4 16.68 4 16 C4.66 16 5.32 16 6 16 C6 11.38 6 6.76 6 2 C4.02 2.99 2.04 3.98 0 5 C0 3.35 0 1.7 0 0 Z " fill="#0549C5" transform="translate(0,39)"/>
<path d="M0 0 C2.31 0 4.62 0 7 0 C7.33 1.98 7.66 3.96 8 6 C8.66 5.01 9.32 4.02 10 3 C9.67 2.01 9.34 1.02 9 0 C10.98 0 12.96 0 15 0 C15 0.66 15 1.32 15 2 C14.34 2 13.68 2 13 2 C12.690625 2.969375 12.38125 3.93875 12.0625 4.9375 C11 8 11 8 10 9 C9.63239269 11.32817964 9.29758419 13.6618385 9 16 C9.66 16 10.32 16 11 16 C11 16.66 11 17.32 11 18 C8.69 18 6.38 18 4 18 C4 17.34 4 16.68 4 16 C4.66 16 5.32 16 6 16 C4.85248597 11.2460133 3.61737483 6.62107093 2 2 C1.34 2 0.68 2 0 2 C0 1.34 0 0.68 0 0 Z " fill="#064AC5" transform="translate(180,39)"/>
<path d="M0 0 C2.64 0 5.28 0 8 0 C8.33 0.66 8.66 1.32 9 2 C10.134375 2.144375 11.26875 2.28875 12.4375 2.4375 C13.613125 2.623125 14.78875 2.80875 16 3 C18 6 18 6 18 10 C16.02 10 14.04 10 12 10 C11.67 8.68 11.34 7.36 11 6 C11 7.32 11 8.64 11 10 C9.68 9.67 8.36 9.34 7 9 C7 6.69 7 4.38 7 2 C6.34 2 5.68 2 5 2 C5.33 4.64 5.66 7.28 6 10 C4.35 10 2.7 10 1 10 C1.66 9.67 2.32 9.34 3 9 C3 6.69 3 4.38 3 2 C2.34 2 1.68 2 1 2 C1 2.66 1 3.32 1 4 C0.34 4 -0.32 4 -1 4 C-0.67 2.68 -0.34 1.36 0 0 Z " fill="#064AC5" transform="translate(119,60)"/>
<path d="M0 0 C2.62561109 -0.08074203 5.24875676 -0.1403623 7.875 -0.1875 C8.99455078 -0.22520508 8.99455078 -0.22520508 10.13671875 -0.26367188 C12.3046875 -0.29296875 12.3046875 -0.29296875 16 0 C16.66 0.99 17.32 1.98 18 3 C17.67 4.32 17.34 5.64 17 7 C11.72 7 6.44 7 1 7 C0.67 4.69 0.34 2.38 0 0 Z M7 1 C7 2.65 7 4.3 7 6 C7.33 6 7.66 6 8 6 C8 4.35 8 2.7 8 1 C7.67 1 7.34 1 7 1 Z M11 2 C11 3.32 11 4.64 11 6 C11.66 5.01 12.32 4.02 13 3 C12.34 2.67 11.68 2.34 11 2 Z " fill="#064AC5" transform="translate(86,63)"/>
<path d="M0 0 C2.31 0 4.62 0 7 0 C7.66 5.94 8.32 11.88 9 18 C7.02 18 5.04 18 3 18 C3.33 13.05 3.66 8.1 4 3 C2.35 3.33 0.7 3.66 -1 4 C-0.67 2.68 -0.34 1.36 0 0 Z " fill="#EEA429" transform="translate(133,39)"/>
<path d="M0 0 C0.99 0 1.98 0 3 0 C4.125 3.75 4.125 3.75 3 6 C3.66 6 4.32 6 5 6 C5 5.01 5 4.02 5 3 C5.99 3 6.98 3 8 3 C7.814375 3.78375 7.62875 4.5675 7.4375 5.375 C6.74037734 7.97089775 6.74037734 7.97089775 8 10 C5.03 10 2.06 10 -1 10 C-2.31223496 6.06329512 -1.24296256 3.87511856 0 0 Z M1 2 C2 4 2 4 2 4 Z M1 6 C2 9 2 9 2 9 Z " fill="#064AC5" transform="translate(108,60)"/>
<path d="M0 0 C2.4375 0.8125 2.4375 0.8125 4.4375 2.8125 C4.66796875 4.6875 4.66796875 4.6875 4.625 6.8125 C4.61533203 7.864375 4.61533203 7.864375 4.60546875 8.9375 C4.4375 10.8125 4.4375 10.8125 3.4375 12.8125 C4.4275 13.1425 5.4175 13.4725 6.4375 13.8125 C6.1075 14.8025 5.7775 15.7925 5.4375 16.8125 C5.4375 16.1525 5.4375 15.4925 5.4375 14.8125 C3.7875 14.8125 2.1375 14.8125 0.4375 14.8125 C-0.82799993 11.01600022 0.12923822 9.50641563 1.4375 5.8125 C1.4375 4.8225 1.4375 3.8325 1.4375 2.8125 C-0.8725 2.8125 -3.1825 2.8125 -5.5625 2.8125 C-3.70773038 0.37201366 -3.14722556 -0.2302848 0 0 Z " fill="#F4B746" transform="translate(140.5625,24.1875)"/>
<path d="M0 0 C2.64 0 5.28 0 8 0 C8 1.32 8 2.64 8 4 C7.67 3.34 7.34 2.68 7 2 C6.34 2 5.68 2 5 2 C5 4.31 5 6.62 5 9 C5.66 9.33 6.32 9.66 7 10 C5.35 10 3.7 10 2 10 C2.33 7.36 2.66 4.72 3 2 C2.34 2 1.68 2 1 2 C1 2.66 1 3.32 1 4 C0.34 4 -0.32 4 -1 4 C-0.67 2.68 -0.34 1.36 0 0 Z " fill="#0549C5" transform="translate(72,60)"/>
<path d="M0 0 C2.125 0.375 2.125 0.375 4 1 C4.38218767 2.65614657 4.71395102 4.32457024 5 6 C4 7 4 7 1.4375 7.0625 C0.2309375 7.0315625 0.2309375 7.0315625 -1 7 C-1.625 4.625 -1.625 4.625 -2 2 C-1.34 1.34 -0.68 0.68 0 0 Z M1 2 C0.67 2.66 0.34 3.32 0 4 C0.66 4.66 1.32 5.32 2 6 C2 4.68 2 3.36 2 2 C1.67 2 1.34 2 1 2 Z " fill="#064AC5" transform="translate(81,63)"/>
<path d="M0 0 C0.33 0 0.66 0 1 0 C1.66 4.62 2.32 9.24 3 14 C1.02 14 -0.96 14 -3 14 C-2.34 13.67 -1.68 13.34 -1 13 C-1.020625 11.783125 -1.04125 10.56625 -1.0625 9.3125 C-1.06824116 6.08022678 -0.78766315 3.15065259 0 0 Z " fill="#E58E0E" transform="translate(139,43)"/>
<path d="M0 0 C2.64 0 5.28 0 8 0 C7.01 2.31 6.02 4.62 5 7 C4.34 7 3.68 7 3 7 C2.01 4.69 1.02 2.38 0 0 Z M4 1 C5 3 5 3 5 3 Z " fill="#064AC5" transform="translate(136,63)"/>
<path d="M0 0 C2 2 2 2 2.125 5.125 C2.08375 6.07375 2.0425 7.0225 2 8 C1.67 6.68 1.34 5.36 1 4 C-1.64 3.67 -4.28 3.34 -7 3 C-7 2.34 -7 1.68 -7 1 C-4.48718205 -0.25640898 -2.78302919 -0.20872719 0 0 Z " fill="#E59114" transform="translate(142,26)"/>
<path d="M0 0 C0.556875 0.268125 1.11375 0.53625 1.6875 0.8125 C-0.09649335 2.59649335 -1.91652213 4.27450246 -3.8125 5.9375 C-4.4209375 6.47632813 -5.029375 7.01515625 -5.65625 7.5703125 C-7.3125 8.8125 -7.3125 8.8125 -9.3125 8.8125 C-7.66495848 4.76853446 -4.80734346 -0.3897846 0 0 Z " fill="#F2A122" transform="translate(53.3125,0.1875)"/>
<path d="M0 0 C1.32 0.66 2.64 1.32 4 2 C4 2.66 4 3.32 4 4 C3.01 4.495 3.01 4.495 2 5 C2.66 5.33 3.32 5.66 4 6 C2.35 6.33 0.7 6.66 -1 7 C-1.625 4.625 -1.625 4.625 -2 2 C-1.34 1.34 -0.68 0.68 0 0 Z " fill="#064AC5" transform="translate(145,63)"/>
<path d="M0 0 C0.99 0 1.98 0 3 0 C3.33 3.3 3.66 6.6 4 10 C2.68 9.67 1.36 9.34 0 9 C0 6.03 0 3.06 0 0 Z " fill="#064AC5" transform="translate(149,60)"/>
<path d="M0 0 C0.66 0 1.32 0 2 0 C2.28875 0.61875 2.5775 1.2375 2.875 1.875 C3.93720042 4.13325765 3.93720042 4.13325765 6 6 C5.01 6.66 4.02 7.32 3 8 C1.02 4.535 1.02 4.535 -1 1 C-0.67 0.67 -0.34 0.34 0 0 Z " fill="#ED9712" transform="translate(28,12)"/>
</svg>
